<svg xmlns="http://www.w3.org/2000/svg" width="53" height="39.119" viewBox="0 0 53 39.119"><defs><style>.a{fill:#ececec;}</style></defs><path class="a" d="M48.031,43.619H4.969A4.93,4.93,0,0,1,0,38.729V9.39A4.93,4.93,0,0,1,4.969,4.5H48.031A4.93,4.93,0,0,1,53,9.39V38.729A4.93,4.93,0,0,1,48.031,43.619ZM11.594,10.2a5.706,5.706,0,1,0,5.8,5.7A5.751,5.751,0,0,0,11.594,10.2ZM6.625,37.1h39.75V25.689l-9.059-8.915a1.257,1.257,0,0,0-1.757,0L21.531,30.579l-5.747-5.655a1.257,1.257,0,0,0-1.757,0l-7.4,7.285Z" transform="translate(0 -4.5)"/></svg>